<svg xmlns="http://www.w3.org/2000/svg" viewBox="0 0 1280 720" width="1280" height="720" role="img" aria-label="Stage 2: drawTri() finally receives activation"><rect width="1280" height="720" fill="#ffffff"/><text x="40" y="52" font-family="system-ui,-apple-system,sans-serif" font-size="15" font-weight="600" fill="#1f6feb" letter-spacing="1.4">PASS A · COVERAGE · STEP 7 OF 10</text><text x="40" y="86" font-family="system-ui,-apple-system,sans-serif" font-size="27" font-weight="600" fill="#1a1d21">Stage 2: drawTri() finally receives activation</text><text x="40" y="112" font-family="system-ui,-apple-system,sans-serif" font-size="17" fill="#8b9199">Reachable now, but still last of five.</text><line x1="150" y1="372" x2="330" y2="268" stroke="#d4d8dd" stroke-width="1.7" opacity=".85"/><line x1="150" y1="372" x2="330" y2="476" stroke="#d4d8dd" stroke-width="1.7" opacity=".85"/><line x1="330" y1="268" x2="500" y2="214" stroke="#d4d8dd" stroke-width="1.7" opacity=".85"/><line x1="330" y1="476" x2="500" y2="420" stroke="#d4d8dd" stroke-width="1.7" opacity=".85"/><line x1="330" y1="268" x2="500" y2="420" stroke="#d4d8dd" stroke-width="1.7" opacity=".85"/><line x1="688" y1="330" x2="330" y2="268" stroke="#7c3aed" stroke-width="1.7" stroke-dasharray="6 4" opacity=".85"/><line x1="688" y1="330" x2="500" y2="420" stroke="#7c3aed" stroke-width="1.7" stroke-dasharray="6 4" opacity=".85"/><rect x="84" y="350" width="132" height="44" rx="8" fill="#e8f0fe" stroke="#1f6feb" stroke-width="2.8"/><text x="150" y="378" text-anchor="middle" font-family="ui-monospace,SFMono-Regular,Menlo,monospace" font-size="18" fill="#1a1d21">render()</text><rect x="84" y="398" width="132" height="7" rx="3.5" fill="#f4f5f7"/><rect x="84" y="398" width="132.0" height="7" rx="3.5" fill="#1f6feb" opacity=".85"/><text x="150" y="422" text-anchor="middle" font-family="ui-monospace,Menlo,monospace" font-size="14" fill="#8b9199">1.00</text><rect x="264" y="246" width="132" height="44" rx="8" fill="#eef4fe" stroke="#1f6feb" stroke-width="2.0"/><text x="330" y="274" text-anchor="middle" font-family="ui-monospace,SFMono-Regular,Menlo,monospace" font-size="18" fill="#1a1d21">layout()</text><rect x="264" y="294" width="132" height="7" rx="3.5" fill="#f4f5f7"/><rect x="264" y="294" width="112.2" height="7" rx="3.5" fill="#1f6feb" opacity=".85"/><text x="330" y="318" text-anchor="middle" font-family="ui-monospace,Menlo,monospace" font-size="14" fill="#8b9199">0.85</text><rect x="264" y="454" width="132" height="44" rx="8" fill="#eef4fe" stroke="#1f6feb" stroke-width="2.0"/><text x="330" y="482" text-anchor="middle" font-family="ui-monospace,SFMono-Regular,Menlo,monospace" font-size="18" fill="#1a1d21">paint()</text><rect x="264" y="502" width="132" height="7" rx="3.5" fill="#f4f5f7"/><rect x="264" y="502" width="93.7" height="7" rx="3.5" fill="#1f6feb" opacity=".85"/><text x="330" y="526" text-anchor="middle" font-family="ui-monospace,Menlo,monospace" font-size="14" fill="#8b9199">0.71</text><rect x="434" y="192" width="132" height="44" rx="8" fill="#eef4fe" stroke="#1f6feb" stroke-width="2.0"/><text x="500" y="220" text-anchor="middle" font-family="ui-monospace,SFMono-Regular,Menlo,monospace" font-size="18" fill="#1a1d21">shape()</text><rect x="434" y="240" width="132" height="7" rx="3.5" fill="#f4f5f7"/><rect x="434" y="240" width="87.1" height="7" rx="3.5" fill="#1f6feb" opacity=".85"/><text x="500" y="264" text-anchor="middle" font-family="ui-monospace,Menlo,monospace" font-size="14" fill="#8b9199">0.66</text><rect x="434" y="398" width="132" height="44" rx="8" fill="#eef4fe" stroke="#1f6feb" stroke-width="2.0"/><text x="500" y="426" text-anchor="middle" font-family="ui-monospace,SFMono-Regular,Menlo,monospace" font-size="18" fill="#1a1d21">fill()</text><rect x="434" y="446" width="132" height="7" rx="3.5" fill="#f4f5f7"/><rect x="434" y="446" width="76.6" height="7" rx="3.5" fill="#1f6feb" opacity=".85"/><text x="500" y="470" text-anchor="middle" font-family="ui-monospace,Menlo,monospace" font-size="14" fill="#8b9199">0.58</text><rect x="622" y="308" width="132" height="44" rx="8" fill="#f5efff" stroke="#7c3aed" stroke-width="2.6"/><text x="688" y="336" text-anchor="middle" font-family="ui-monospace,SFMono-Regular,Menlo,monospace" font-size="18" fill="#1a1d21">drawTri()</text><rect x="622" y="356" width="132" height="7" rx="3.5" fill="#f4f5f7"/><rect x="622" y="356" width="72.6" height="7" rx="3.5" fill="#7c3aed" opacity=".85"/><text x="688" y="380" text-anchor="middle" font-family="ui-monospace,Menlo,monospace" font-size="14" fill="#8b9199">0.55</text><text x="824" y="128" font-family="system-ui,-apple-system,sans-serif" font-size="17" font-weight="600" fill="#1a1d21">ranked candidates</text><text x="824" y="170" font-family="system-ui,-apple-system,sans-serif" font-size="15" fill="#8b9199">1</text><text x="850" y="170" font-family="ui-monospace,Menlo,monospace" font-size="16" fill="#1a1d21">layout()</text><rect x="1010" y="157" width="180" height="14" rx="7" fill="#f4f5f7"/><rect x="1010" y="157" width="153.0" height="14" rx="7" fill="#1f6feb" opacity=".85"/><text x="1202" y="170" font-family="ui-monospace,Menlo,monospace" font-size="15" fill="#8b9199">0.85</text><text x="824" y="212" font-family="system-ui,-apple-system,sans-serif" font-size="15" fill="#8b9199">2</text><text x="850" y="212" font-family="ui-monospace,Menlo,monospace" font-size="16" fill="#1a1d21">paint()</text><rect x="1010" y="199" width="180" height="14" rx="7" fill="#f4f5f7"/><rect x="1010" y="199" width="127.8" height="14" rx="7" fill="#1f6feb" opacity=".85"/><text x="1202" y="212" font-family="ui-monospace,Menlo,monospace" font-size="15" fill="#8b9199">0.71</text><text x="824" y="254" font-family="system-ui,-apple-system,sans-serif" font-size="15" fill="#8b9199">3</text><text x="850" y="254" font-family="ui-monospace,Menlo,monospace" font-size="16" fill="#1a1d21">shape()</text><rect x="1010" y="241" width="180" height="14" rx="7" fill="#f4f5f7"/><rect x="1010" y="241" width="118.8" height="14" rx="7" fill="#1f6feb" opacity=".85"/><text x="1202" y="254" font-family="ui-monospace,Menlo,monospace" font-size="15" fill="#8b9199">0.66</text><text x="824" y="296" font-family="system-ui,-apple-system,sans-serif" font-size="15" fill="#8b9199">4</text><text x="850" y="296" font-family="ui-monospace,Menlo,monospace" font-size="16" fill="#1a1d21">fill()</text><rect x="1010" y="283" width="180" height="14" rx="7" fill="#f4f5f7"/><rect x="1010" y="283" width="104.4" height="14" rx="7" fill="#1f6feb" opacity=".85"/><text x="1202" y="296" font-family="ui-monospace,Menlo,monospace" font-size="15" fill="#8b9199">0.58</text><rect x="814" y="314" width="430" height="36" rx="7" fill="#e7f5ec"/><text x="824" y="338" font-family="system-ui,-apple-system,sans-serif" font-size="15" fill="#8b9199">5</text><text x="850" y="338" font-family="ui-monospace,Menlo,monospace" font-size="16" fill="#1a1d21">drawTri()</text><rect x="1010" y="325" width="180" height="14" rx="7" fill="#f4f5f7"/><rect x="1010" y="325" width="99.0" height="14" rx="7" fill="#17803d" opacity=".85"/><text x="1202" y="338" font-family="ui-monospace,Menlo,monospace" font-size="15" fill="#8b9199">0.55</text><text x="40" y="698" font-family="system-ui,-apple-system,sans-serif" font-size="14" fill="#8b9199">Model parameters are the published defaults. Activations and cue strengths are illustrative; gate values are computed.</text></svg>